<mxfile host="app.diagrams.net" agent="Mozilla/5.0 (Windows NT 10.0; Win64; x64) AppleWebKit/537.36 (KHTML, like Gecko) Chrome/131.0.0.0 Safari/537.36" version="25.0.3">
  <diagram name="Halaman-1" id="dxoAKvio2ZnGJ7Pl0nor">
    <mxGraphModel dx="1050" dy="557" grid="1" gridSize="10" guides="1" tooltips="1" connect="1" arrows="1" fold="1" page="1" pageScale="1" pageWidth="827" pageHeight="1169" math="0" shadow="0">
      <root>
        <mxCell id="0" />
        <mxCell id="1" parent="0" />
        <mxCell id="8OGx8_gyBg0N_yoZHP3R-1" value="Loop" style="whiteSpace=wrap;strokeWidth=2;" vertex="1" parent="1">
          <mxGeometry x="20" y="821" width="326" height="605" as="geometry" />
        </mxCell>
        <mxCell id="8OGx8_gyBg0N_yoZHP3R-2" value="WebSocket Setup" style="whiteSpace=wrap;strokeWidth=2;" vertex="1" parent="1">
          <mxGeometry x="366" y="680" width="314" height="257" as="geometry" />
        </mxCell>
        <mxCell id="8OGx8_gyBg0N_yoZHP3R-3" value="Web Server Setup" style="whiteSpace=wrap;strokeWidth=2;" vertex="1" parent="1">
          <mxGeometry x="701" y="557" width="325" height="380" as="geometry" />
        </mxCell>
        <mxCell id="8OGx8_gyBg0N_yoZHP3R-4" value="Start" style="whiteSpace=wrap;strokeWidth=2;" vertex="1" parent="1">
          <mxGeometry x="569" y="20" width="95" height="48" as="geometry" />
        </mxCell>
        <mxCell id="8OGx8_gyBg0N_yoZHP3R-5" value="Setup Function" style="whiteSpace=wrap;strokeWidth=2;" vertex="1" parent="1">
          <mxGeometry x="533" y="118" width="167" height="48" as="geometry" />
        </mxCell>
        <mxCell id="8OGx8_gyBg0N_yoZHP3R-6" value="Initialize Serial Monitor" style="whiteSpace=wrap;strokeWidth=2;" vertex="1" parent="1">
          <mxGeometry x="231" y="217" width="228" height="48" as="geometry" />
        </mxCell>
        <mxCell id="8OGx8_gyBg0N_yoZHP3R-7" value="Set LED Pin as Output" style="whiteSpace=wrap;strokeWidth=2;" vertex="1" parent="1">
          <mxGeometry x="510" y="217" width="215" height="48" as="geometry" />
        </mxCell>
        <mxCell id="8OGx8_gyBg0N_yoZHP3R-8" value="Connect to WiFi" style="whiteSpace=wrap;strokeWidth=2;" vertex="1" parent="1">
          <mxGeometry x="774" y="217" width="174" height="48" as="geometry" />
        </mxCell>
        <mxCell id="8OGx8_gyBg0N_yoZHP3R-9" value="Check WiFi Connection" style="whiteSpace=wrap;strokeWidth=2;" vertex="1" parent="1">
          <mxGeometry x="749" y="338" width="224" height="48" as="geometry" />
        </mxCell>
        <mxCell id="8OGx8_gyBg0N_yoZHP3R-10" value="Display IP Address" style="whiteSpace=wrap;strokeWidth=2;" vertex="1" parent="1">
          <mxGeometry x="768" y="458" width="188" height="48" as="geometry" />
        </mxCell>
        <mxCell id="8OGx8_gyBg0N_yoZHP3R-11" value="Define Route for Web Page" style="whiteSpace=wrap;strokeWidth=2;" vertex="1" parent="1">
          <mxGeometry x="736" y="582" width="252" height="48" as="geometry" />
        </mxCell>
        <mxCell id="8OGx8_gyBg0N_yoZHP3R-12" value="Generate HTML for LED Control" style="whiteSpace=wrap;strokeWidth=2;" vertex="1" parent="1">
          <mxGeometry x="758" y="705" width="227" height="66" as="geometry" />
        </mxCell>
        <mxCell id="8OGx8_gyBg0N_yoZHP3R-13" value="Send HTML Response" style="whiteSpace=wrap;strokeWidth=2;" vertex="1" parent="1">
          <mxGeometry x="768" y="855" width="208" height="48" as="geometry" />
        </mxCell>
        <mxCell id="8OGx8_gyBg0N_yoZHP3R-14" value="Begin WebSocket" style="whiteSpace=wrap;strokeWidth=2;" vertex="1" parent="1">
          <mxGeometry x="423" y="714" width="182" height="48" as="geometry" />
        </mxCell>
        <mxCell id="8OGx8_gyBg0N_yoZHP3R-15" value="Handle WebSocket Events" style="whiteSpace=wrap;strokeWidth=2;" vertex="1" parent="1">
          <mxGeometry x="401" y="855" width="244" height="48" as="geometry" />
        </mxCell>
        <mxCell id="8OGx8_gyBg0N_yoZHP3R-16" value="Handle Web Server Requests" style="whiteSpace=wrap;strokeWidth=2;" vertex="1" parent="1">
          <mxGeometry x="85" y="846" width="197" height="66" as="geometry" />
        </mxCell>
        <mxCell id="8OGx8_gyBg0N_yoZHP3R-17" value="Handle WebSocket Communication" style="whiteSpace=wrap;strokeWidth=2;" vertex="1" parent="1">
          <mxGeometry x="87" y="987" width="193" height="66" as="geometry" />
        </mxCell>
        <mxCell id="8OGx8_gyBg0N_yoZHP3R-18" value="Receive PWM Value from Slider" style="whiteSpace=wrap;strokeWidth=2;" vertex="1" parent="1">
          <mxGeometry x="65" y="1103" width="236" height="66" as="geometry" />
        </mxCell>
        <mxCell id="8OGx8_gyBg0N_yoZHP3R-19" value="Set LED Brightness using PWM" style="whiteSpace=wrap;strokeWidth=2;" vertex="1" parent="1">
          <mxGeometry x="66" y="1219" width="234" height="66" as="geometry" />
        </mxCell>
        <mxCell id="8OGx8_gyBg0N_yoZHP3R-20" value="Display PWM Value in Serial Monitor" style="whiteSpace=wrap;strokeWidth=2;" vertex="1" parent="1">
          <mxGeometry x="55" y="1335" width="256" height="66" as="geometry" />
        </mxCell>
        <mxCell id="8OGx8_gyBg0N_yoZHP3R-21" value="" style="curved=1;startArrow=none;endArrow=block;exitX=0.5;exitY=1.01;entryX=0.5;entryY=0.01;rounded=0;" edge="1" parent="1" source="8OGx8_gyBg0N_yoZHP3R-4" target="8OGx8_gyBg0N_yoZHP3R-5">
          <mxGeometry relative="1" as="geometry">
            <Array as="points" />
          </mxGeometry>
        </mxCell>
        <mxCell id="8OGx8_gyBg0N_yoZHP3R-22" value="" style="curved=1;startArrow=none;endArrow=block;exitX=0;exitY=0.83;entryX=0.5;entryY=0;rounded=0;" edge="1" parent="1" source="8OGx8_gyBg0N_yoZHP3R-5" target="8OGx8_gyBg0N_yoZHP3R-6">
          <mxGeometry relative="1" as="geometry">
            <Array as="points">
              <mxPoint x="345" y="192" />
            </Array>
          </mxGeometry>
        </mxCell>
        <mxCell id="8OGx8_gyBg0N_yoZHP3R-23" value="" style="curved=1;startArrow=none;endArrow=block;exitX=0.5;exitY=1.02;entryX=0.5;entryY=0;rounded=0;" edge="1" parent="1" source="8OGx8_gyBg0N_yoZHP3R-5" target="8OGx8_gyBg0N_yoZHP3R-7">
          <mxGeometry relative="1" as="geometry">
            <Array as="points" />
          </mxGeometry>
        </mxCell>
        <mxCell id="8OGx8_gyBg0N_yoZHP3R-24" value="" style="curved=1;startArrow=none;endArrow=block;exitX=1;exitY=0.86;entryX=0.5;entryY=0;rounded=0;" edge="1" parent="1" source="8OGx8_gyBg0N_yoZHP3R-5" target="8OGx8_gyBg0N_yoZHP3R-8">
          <mxGeometry relative="1" as="geometry">
            <Array as="points">
              <mxPoint x="861" y="192" />
            </Array>
          </mxGeometry>
        </mxCell>
        <mxCell id="8OGx8_gyBg0N_yoZHP3R-25" value="" style="curved=1;startArrow=none;endArrow=block;exitX=0.42;exitY=1;entryX=0.43;entryY=-0.01;rounded=0;" edge="1" parent="1" source="8OGx8_gyBg0N_yoZHP3R-8" target="8OGx8_gyBg0N_yoZHP3R-9">
          <mxGeometry relative="1" as="geometry">
            <Array as="points">
              <mxPoint x="824" y="301" />
            </Array>
          </mxGeometry>
        </mxCell>
        <mxCell id="8OGx8_gyBg0N_yoZHP3R-26" value="Not Connected" style="curved=1;startArrow=none;endArrow=block;exitX=0.57;exitY=-0.01;entryX=0.59;entryY=1;rounded=0;" edge="1" parent="1" source="8OGx8_gyBg0N_yoZHP3R-9" target="8OGx8_gyBg0N_yoZHP3R-8">
          <mxGeometry relative="1" as="geometry">
            <Array as="points">
              <mxPoint x="899" y="301" />
            </Array>
          </mxGeometry>
        </mxCell>
        <mxCell id="8OGx8_gyBg0N_yoZHP3R-27" value="Connected" style="curved=1;startArrow=none;endArrow=block;exitX=0.5;exitY=1;entryX=0.5;entryY=0.01;rounded=0;" edge="1" parent="1" source="8OGx8_gyBg0N_yoZHP3R-9" target="8OGx8_gyBg0N_yoZHP3R-10">
          <mxGeometry relative="1" as="geometry">
            <Array as="points" />
          </mxGeometry>
        </mxCell>
        <mxCell id="8OGx8_gyBg0N_yoZHP3R-28" value="" style="curved=1;startArrow=none;endArrow=block;exitX=0.52;exitY=1;entryX=0.5;entryY=0;rounded=0;" edge="1" parent="1" source="8OGx8_gyBg0N_yoZHP3R-11" target="8OGx8_gyBg0N_yoZHP3R-12">
          <mxGeometry relative="1" as="geometry">
            <Array as="points">
              <mxPoint x="871" y="655" />
            </Array>
          </mxGeometry>
        </mxCell>
        <mxCell id="8OGx8_gyBg0N_yoZHP3R-29" value="" style="curved=1;startArrow=none;endArrow=block;exitX=0.5;exitY=1;entryX=0.5;entryY=0;rounded=0;" edge="1" parent="1" source="8OGx8_gyBg0N_yoZHP3R-12" target="8OGx8_gyBg0N_yoZHP3R-13">
          <mxGeometry relative="1" as="geometry">
            <Array as="points" />
          </mxGeometry>
        </mxCell>
        <mxCell id="8OGx8_gyBg0N_yoZHP3R-30" value="" style="curved=1;startArrow=none;endArrow=block;exitX=0.52;exitY=1.01;entryX=0.5;entryY=0;rounded=0;" edge="1" parent="1" source="8OGx8_gyBg0N_yoZHP3R-14" target="8OGx8_gyBg0N_yoZHP3R-15">
          <mxGeometry relative="1" as="geometry">
            <Array as="points">
              <mxPoint x="524" y="796" />
            </Array>
          </mxGeometry>
        </mxCell>
        <mxCell id="8OGx8_gyBg0N_yoZHP3R-31" value="" style="curved=1;startArrow=none;endArrow=block;exitX=0.5;exitY=1.02;entryX=0.5;entryY=0;rounded=0;" edge="1" parent="1" source="8OGx8_gyBg0N_yoZHP3R-10" target="8OGx8_gyBg0N_yoZHP3R-11">
          <mxGeometry relative="1" as="geometry">
            <Array as="points" />
          </mxGeometry>
        </mxCell>
        <mxCell id="8OGx8_gyBg0N_yoZHP3R-32" value="" style="curved=1;startArrow=none;endArrow=block;exitX=0.36;exitY=1;entryX=1;entryY=0.11;rounded=0;" edge="1" parent="1" source="8OGx8_gyBg0N_yoZHP3R-11" target="8OGx8_gyBg0N_yoZHP3R-14">
          <mxGeometry relative="1" as="geometry">
            <Array as="points">
              <mxPoint x="791" y="655" />
              <mxPoint x="791" y="680" />
            </Array>
          </mxGeometry>
        </mxCell>
        <mxCell id="8OGx8_gyBg0N_yoZHP3R-33" value="" style="curved=1;startArrow=none;endArrow=block;exitX=0.5;exitY=1;entryX=0.5;entryY=0;rounded=0;" edge="1" parent="1" source="8OGx8_gyBg0N_yoZHP3R-16" target="8OGx8_gyBg0N_yoZHP3R-17">
          <mxGeometry relative="1" as="geometry">
            <Array as="points" />
          </mxGeometry>
        </mxCell>
        <mxCell id="8OGx8_gyBg0N_yoZHP3R-34" value="" style="curved=1;startArrow=none;endArrow=block;exitX=0.5;exitY=1;entryX=0.5;entryY=0;rounded=0;" edge="1" parent="1" source="8OGx8_gyBg0N_yoZHP3R-17" target="8OGx8_gyBg0N_yoZHP3R-18">
          <mxGeometry relative="1" as="geometry">
            <Array as="points" />
          </mxGeometry>
        </mxCell>
        <mxCell id="8OGx8_gyBg0N_yoZHP3R-35" value="" style="curved=1;startArrow=none;endArrow=block;exitX=0.5;exitY=1;entryX=0.5;entryY=0;rounded=0;" edge="1" parent="1" source="8OGx8_gyBg0N_yoZHP3R-18" target="8OGx8_gyBg0N_yoZHP3R-19">
          <mxGeometry relative="1" as="geometry">
            <Array as="points" />
          </mxGeometry>
        </mxCell>
        <mxCell id="8OGx8_gyBg0N_yoZHP3R-36" value="" style="curved=1;startArrow=none;endArrow=block;exitX=0.5;exitY=1;entryX=0.5;entryY=0;rounded=0;" edge="1" parent="1" source="8OGx8_gyBg0N_yoZHP3R-19" target="8OGx8_gyBg0N_yoZHP3R-20">
          <mxGeometry relative="1" as="geometry">
            <Array as="points" />
          </mxGeometry>
        </mxCell>
        <mxCell id="8OGx8_gyBg0N_yoZHP3R-37" value="" style="curved=1;startArrow=none;endArrow=block;rounded=0;" edge="1" parent="1" source="8OGx8_gyBg0N_yoZHP3R-14" target="8OGx8_gyBg0N_yoZHP3R-1">
          <mxGeometry relative="1" as="geometry">
            <Array as="points" />
          </mxGeometry>
        </mxCell>
        <mxCell id="8OGx8_gyBg0N_yoZHP3R-38" value="" style="curved=1;startArrow=none;endArrow=block;rounded=0;" edge="1" parent="1" source="8OGx8_gyBg0N_yoZHP3R-1" target="8OGx8_gyBg0N_yoZHP3R-16">
          <mxGeometry relative="1" as="geometry">
            <Array as="points" />
          </mxGeometry>
        </mxCell>
      </root>
    </mxGraphModel>
  </diagram>
</mxfile>
